<?xml version="1.0" standalone="no"?>
<!DOCTYPE svg PUBLIC "-//W3C//DTD SVG 20010904//EN"
 "http://www.w3.org/TR/2001/REC-SVG-20010904/DTD/svg10.dtd">
<svg version="1.0" xmlns="http://www.w3.org/2000/svg"
 width="96.000000pt" height="96.000000pt" viewBox="0 0 96.000000 96.000000"
 preserveAspectRatio="xMidYMid meet">
<metadata>
Created by potrace 1.14, written by Peter Selinger 2001-2017
</metadata>
<g transform="translate(0.000000,96.000000) scale(0.100000,-0.100000)"
fill="#000000" stroke="none">
<path d="M615 863 c-129 -23 -145 -33 -145 -84 0 -22 -3 -28 -12 -22 -22 14
-172 39 -198 33 -16 -4 -31 -19 -42 -40 -15 -32 -56 -231 -63 -307 -4 -40 28
-106 60 -123 15 -8 23 -20 21 -29 -3 -9 -8 -36 -12 -61 -4 -25 -9 -48 -10 -52
-1 -5 -2 -15 -3 -23 -1 -11 -14 -15 -50 -15 -42 0 -51 -3 -56 -21 -9 -28 10
-46 55 -52 19 -3 68 -10 109 -17 61 -10 75 -10 82 2 16 24 4 43 -38 62 -41 19
-43 21 -38 58 5 39 12 75 22 111 2 9 11 17 20 17 28 0 82 31 99 58 10 15 30
88 45 162 18 91 28 127 32 110 3 -14 13 -60 22 -102 18 -88 47 -125 112 -143
36 -10 37 -11 50 -85 14 -85 12 -100 -16 -100 -32 0 -65 -33 -57 -58 9 -26 15
-26 125 -7 107 19 131 29 131 54 0 23 -19 31 -71 31 -21 0 -39 1 -39 3 0 1 -6
39 -14 84 -13 82 -13 83 10 98 31 20 51 53 57 91 6 42 -51 335 -69 356 -22 24
-41 25 -119 11z m79 -70 c3 -10 8 -35 12 -55 l6 -38 -85 0 c-79 0 -85 1 -91
23 -14 54 -9 64 42 74 85 16 110 15 116 -4z m-299 -79 c39 -7 38 -6 30 -53
l-7 -41 -84 0 -85 0 7 48 c3 26 9 51 12 56 4 8 53 4 127 -10z m343 -140 c16
-96 -5 -134 -75 -134 -58 0 -81 35 -99 145 -3 22 -8 43 -11 48 -2 4 36 7 85 7
l89 0 11 -66z m-348 -96 c-20 -92 -41 -118 -95 -118 -67 0 -89 42 -71 135 4
22 8 46 9 53 0 8 25 12 88 12 l87 0 -18 -82z"/>
</g>
</svg>
